<?xml version="1.0" standalone="no"?>
<!DOCTYPE svg PUBLIC "-//W3C//DTD SVG 20010904//EN"
 "http://www.w3.org/TR/2001/REC-SVG-20010904/DTD/svg10.dtd">
<svg version="1.0" xmlns="http://www.w3.org/2000/svg"
 width="733.000000pt" height="460.000000pt" viewBox="0 0 733.000000 460.000000"
 preserveAspectRatio="xMidYMid meet">
<metadata>
Created by potrace 1.16, written by Peter Selinger 2001-2019
</metadata>
<g transform="translate(0.000000,460.000000) scale(0.100000,-0.100000)"
fill="#000000" stroke="none">
<path d="M0 3363 l0 -1236 2558 6 c1406 4 3049 7 3650 7 l1092 0 0 175 0 175
-1945 0 -1945 0 0 180 0 180 1945 0 1945 0 0 175 0 175 -1945 0 -1945 0 0 190
0 190 1945 0 1945 0 0 175 0 175 -1945 0 -1945 0 0 175 0 175 1945 0 1945 0 0
160 0 160 -3650 0 -3650 0 0 -1237z m204 1087 c11 -19 29 -33 47 -37 39 -8 43
-16 19 -46 -13 -16 -20 -40 -20 -66 l0 -41 -35 17 c-28 13 -39 14 -60 5 -39
-18 -45 -15 -45 25 0 24 -8 45 -21 59 -25 27 -20 39 21 48 20 3 37 16 48 36 9
16 19 30 22 30 3 0 14 -14 24 -30z m616 -27 c6 -7 21 -13 34 -13 35 0 37 -10
12 -44 -18 -23 -22 -39 -19 -65 5 -32 4 -34 -18 -27 -48 15 -77 18 -83 7 -16
-25 -36 -11 -36 26 0 26 -8 45 -27 65 -28 29 -27 30 29 42 17 4 34 18 44 38
l17 32 18 -25 c11 -13 24 -30 29 -36z m646 -17 l36 -7 -26 -28 c-20 -20 -26
-37 -26 -69 l0 -42 -35 17 c-33 16 -37 16 -64 0 -41 -24 -44 -22 -38 20 6 32
2 42 -21 66 -22 23 -24 29 -12 37 8 5 25 10 37 10 14 0 28 13 43 37 l21 36 24
-35 c18 -26 34 -37 61 -42z m537 39 c12 -25 23 -35 39 -35 13 0 30 -5 38 -10
12 -7 11 -13 -10 -35 -19 -20 -24 -35 -21 -65 3 -45 0 -47 -40 -23 -27 16 -31
16 -64 0 l-35 -17 0 42 c0 32 -6 49 -26 69 l-26 28 37 7 c28 5 42 15 57 40 11
19 23 34 27 34 4 0 15 -16 24 -35z m606 0 c12 -21 28 -35 40 -35 47 0 52 -10
25 -45 -21 -27 -24 -40 -18 -69 7 -41 5 -42 -38 -20 -28 15 -34 15 -64 1 -39
-19 -44 -15 -37 28 4 27 0 39 -21 61 -27 30 -21 44 22 44 15 0 29 11 43 35 12
19 22 35 24 35 2 0 12 -16 24 -35z m600 0 c14 -24 28 -35 43 -35 43 0 51 -14
23 -40 -19 -18 -25 -33 -25 -67 l0 -43 -35 17 c-30 14 -38 15 -62 3 -16 -8
-32 -16 -36 -18 -5 -2 -7 13 -6 35 2 28 -3 48 -19 70 -19 27 -20 32 -6 37 9 3
24 6 35 6 12 0 25 13 36 35 9 19 20 35 24 35 4 0 16 -16 28 -35z m-2709 -235
c8 -19 22 -32 39 -36 54 -12 55 -12 29 -47 -19 -25 -24 -41 -20 -70 l4 -38
-36 17 c-29 14 -40 15 -61 6 -46 -21 -56 -16 -49 26 5 30 2 41 -15 56 -26 24
-27 46 -2 46 33 0 51 11 67 41 19 37 28 37 44 -1z m597 0 c10 -17 29 -33 43
-36 54 -12 55 -13 25 -44 -23 -24 -27 -35 -22 -65 6 -36 6 -37 -21 -29 -33 9
-69 9 -100 -1 -22 -7 -23 -6 -16 29 6 32 3 41 -21 66 -30 31 -29 32 26 44 17
4 31 17 39 36 16 38 24 38 47 0z m606 -5 c14 -28 22 -35 46 -35 41 0 48 -17
18 -48 -19 -22 -23 -34 -20 -64 l5 -38 -38 16 c-34 14 -41 14 -71 0 l-33 -16
0 42 c0 29 -7 49 -21 64 -25 26 -18 44 16 44 17 0 32 11 47 35 13 19 26 35 29
35 3 0 13 -16 22 -35z m597 0 c12 -19 30 -35 40 -35 10 0 25 -3 34 -6 14 -5
12 -11 -10 -37 -21 -25 -24 -36 -19 -69 l7 -39 -38 16 c-34 14 -42 14 -76 0
l-38 -15 6 41 c6 35 3 44 -20 68 -23 24 -25 29 -11 35 9 3 25 6 36 6 12 0 28
14 40 35 12 19 22 35 24 35 2 0 13 -16 25 -35z m609 0 c14 -24 28 -35 43 -35
43 0 51 -14 23 -40 -19 -18 -25 -33 -25 -67 l0 -43 -33 16 c-30 14 -37 14 -71
0 l-38 -16 4 38 c4 29 0 43 -19 65 -27 34 -23 47 17 47 21 0 33 8 49 35 11 19
22 35 25 35 2 0 13 -16 25 -35z m-2111 -249 c15 -25 29 -35 56 -40 43 -8 44
-15 11 -46 -21 -20 -24 -29 -19 -62 7 -43 5 -44 -36 -23 -25 13 -32 13 -64 0
-19 -8 -37 -15 -38 -15 -2 0 -2 18 0 41 4 34 0 45 -23 69 l-28 29 40 7 c32 5
43 13 58 40 10 19 19 34 21 34 1 0 11 -15 22 -34z m-594 -5 c11 -20 25 -31 51
-35 40 -8 43 -16 15 -41 -14 -13 -20 -31 -20 -62 0 -23 -2 -43 -5 -43 -4 0
-19 7 -35 15 -27 14 -33 14 -60 0 -16 -8 -31 -15 -35 -15 -3 0 -5 20 -5 43 0
31 -6 49 -20 62 -28 25 -25 33 15 41 26 4 40 15 51 35 8 16 19 29 24 29 5 0
16 -13 24 -29z m1201 -1 c11 -21 25 -31 50 -36 40 -7 44 -22 15 -47 -14 -12
-20 -29 -20 -58 0 -36 -2 -40 -17 -33 -24 10 -72 11 -102 0 -23 -8 -24 -7 -18
31 6 34 3 43 -18 63 -33 31 -32 36 13 43 29 5 40 13 50 37 17 38 27 38 47 0z
m597 1 c11 -21 27 -32 52 -37 41 -7 44 -14 16 -39 -14 -13 -20 -31 -20 -62 0
-42 -1 -44 -22 -36 -27 9 -75 9 -104 -1 -18 -7 -20 -4 -16 29 4 29 -1 42 -23
65 -29 30 -27 34 23 45 22 4 37 16 47 36 19 36 26 36 47 0z m608 -1 c10 -24
20 -31 51 -36 22 -4 39 -10 39 -14 0 -3 -12 -17 -26 -31 -22 -20 -25 -30 -20
-63 6 -37 6 -38 -16 -31 -13 4 -36 8 -53 8 -16 0 -40 -4 -53 -8 -22 -7 -22 -6
-16 31 5 33 2 43 -20 63 -14 14 -26 28 -26 31 0 4 17 10 38 14 27 4 41 13 54
36 21 38 32 38 48 0z m595 0 c11 -21 25 -31 50 -36 40 -7 43 -16 15 -46 -13
-14 -20 -36 -20 -61 0 -34 -2 -38 -17 -31 -24 10 -72 11 -102 0 -23 -8 -24 -7
-19 32 5 34 2 44 -18 63 -32 30 -30 36 12 43 25 5 41 16 52 37 21 36 28 36 47
-1z m-2706 -234 c15 -24 31 -36 56 -40 41 -8 43 -15 11 -45 -20 -19 -23 -29
-19 -62 6 -44 4 -45 -38 -24 -27 14 -33 14 -61 1 -39 -20 -48 -14 -41 30 5 28
1 40 -18 60 -20 21 -21 27 -9 34 8 5 24 10 35 10 13 0 27 13 39 35 11 19 20
35 22 35 1 0 12 -15 23 -34z m656 -40 l36 -7 -26 -35 c-22 -28 -26 -43 -22
-70 7 -39 6 -39 -38 -18 -30 14 -36 14 -64 0 -42 -22 -44 -21 -36 22 5 32 2
41 -19 62 -34 31 -33 38 10 46 27 5 41 15 56 41 l21 34 23 -34 c16 -25 33 -37
59 -41z m547 37 c8 -18 25 -31 48 -37 47 -13 46 -11 17 -46 -21 -24 -25 -37
-20 -65 6 -39 -7 -45 -41 -20 -16 12 -23 12 -54 0 -19 -8 -36 -15 -38 -15 -2
0 -4 17 -4 38 0 26 -7 45 -20 57 -29 26 -25 42 15 49 25 5 39 15 50 36 19 37
30 38 47 3z m603 -14 c4 -13 19 -21 46 -25 21 -4 39 -10 39 -14 0 -3 -11 -17
-26 -30 -21 -21 -24 -30 -19 -62 7 -42 0 -46 -43 -24 -23 12 -31 12 -52 0 -39
-21 -46 -17 -42 24 3 30 -1 42 -22 61 -14 14 -26 28 -26 31 0 4 17 10 38 14
28 4 41 13 55 37 14 25 20 29 32 19 8 -6 17 -20 20 -31z m602 11 c11 -20 28
-32 50 -36 38 -7 40 -13 13 -47 -12 -14 -20 -40 -20 -61 0 -40 -4 -42 -39 -22
-21 11 -30 11 -57 0 -45 -19 -45 -19 -42 26 1 29 -4 46 -20 63 -29 31 -28 34
13 41 24 5 40 16 52 36 22 37 28 37 50 0z m-252 -286 c40 -7 44 -23 14 -50
-16 -14 -20 -28 -17 -56 4 -42 0 -45 -40 -24 -23 12 -31 12 -52 0 -43 -24 -53
-18 -46 24 5 33 2 42 -19 62 -33 31 -32 37 13 45 32 5 42 13 56 43 l18 37 19
-37 c15 -29 27 -39 54 -44z m-2425 9 c6 -7 22 -13 35 -13 35 0 38 -14 9 -41
-22 -21 -25 -29 -19 -67 l6 -43 -30 15 c-34 18 -67 21 -76 6 -3 -5 -15 -10
-25 -10 -16 0 -18 5 -13 36 5 29 1 40 -22 64 -30 31 -29 32 27 44 17 4 34 18
44 38 l17 32 18 -25 c11 -13 24 -30 29 -36z m575 27 c11 -21 27 -32 56 -40
l41 -11 -26 -28 c-19 -19 -26 -38 -26 -65 0 -35 -2 -38 -22 -31 -30 10 -67 10
-97 0 -23 -8 -24 -7 -18 28 4 28 1 41 -18 63 -27 32 -24 44 10 44 26 0 51 20
60 50 9 28 22 25 40 -10z m615 -27 c6 -7 21 -13 34 -13 35 0 38 -10 11 -42
-21 -25 -24 -36 -19 -70 l7 -40 -31 16 c-35 18 -68 21 -77 6 -3 -5 -15 -10
-25 -10 -16 0 -18 5 -13 36 5 29 1 40 -22 64 -30 31 -29 32 27 44 17 4 34 18
44 38 l17 32 18 -25 c11 -13 24 -30 29 -36z m575 27 c11 -21 27 -32 56 -40
l41 -11 -27 -29 c-23 -24 -27 -35 -22 -66 6 -35 5 -36 -21 -29 -36 9 -72 9
-101 0 -23 -8 -24 -7 -18 32 6 34 3 43 -18 63 -29 28 -26 36 19 44 25 5 37 14
46 36 16 38 25 38 45 0z m1210 0 c11 -21 25 -31 50 -36 19 -3 35 -8 35 -11 0
-2 -10 -17 -22 -34 -15 -20 -21 -41 -19 -64 2 -26 -1 -35 -13 -35 -8 0 -18 5
-22 11 -7 11 -55 8 -86 -6 -16 -6 -18 -1 -18 37 0 32 -6 50 -20 63 -28 25 -25
32 15 39 25 5 39 15 50 36 9 17 20 30 25 30 5 0 16 -13 25 -30z m-2696 -245
c16 -27 27 -35 49 -35 42 0 46 -10 16 -41 -21 -22 -25 -35 -22 -63 4 -40 -4
-44 -47 -24 -21 9 -32 8 -62 -6 l-36 -17 6 37 c5 29 1 43 -20 70 -27 36 -26
36 28 48 17 4 31 17 39 36 16 39 23 38 49 -5z m586 15 c9 -30 34 -50 60 -50
35 0 40 -18 14 -46 -18 -19 -23 -34 -20 -65 l3 -39 -36 17 c-29 13 -40 14 -61
5 -40 -18 -45 -15 -45 26 0 26 -7 45 -20 57 -29 26 -25 45 8 45 29 0 54 20 65
53 8 23 24 22 32 -3z m618 -32 c9 -10 28 -18 41 -18 36 0 39 -14 11 -40 -18
-17 -25 -34 -25 -62 0 -36 -2 -39 -22 -32 -28 10 -65 9 -97 -1 -23 -8 -24 -7
-18 28 5 30 1 43 -20 67 -26 31 -25 32 27 44 14 3 33 20 44 38 17 31 19 32 30
14 6 -11 19 -28 29 -38z m567 43 c0 -19 51 -61 75 -61 30 0 33 -20 5 -45 -14
-12 -20 -31 -20 -58 0 -36 -2 -39 -22 -32 -29 10 -67 10 -96 0 -22 -7 -24 -6
-21 28 3 27 -3 42 -20 61 -26 28 -21 46 14 46 17 0 32 11 47 35 22 33 38 45
38 26z m623 -21 c12 -20 28 -31 52 -36 40 -7 43 -17 15 -41 -14 -12 -20 -30
-20 -60 0 -48 -3 -49 -44 -28 -17 9 -33 12 -40 6 -6 -5 -21 -12 -33 -15 -21
-7 -23 -4 -23 37 0 31 -6 49 -20 62 -28 25 -25 32 15 39 25 5 39 15 50 36 19
37 26 37 48 0z m-2695 -254 c15 -25 29 -35 56 -40 43 -8 44 -15 10 -46 -21
-21 -24 -30 -18 -63 6 -37 5 -39 -17 -32 -13 4 -30 11 -38 15 -8 4 -29 1 -47
-6 -45 -19 -46 -19 -38 21 5 29 1 40 -21 67 l-28 33 40 9 c32 7 44 15 57 42 8
19 18 34 20 34 2 0 13 -15 24 -34z m1190 0 c15 -25 29 -35 56 -40 43 -8 44
-15 10 -46 -21 -21 -24 -30 -19 -62 7 -42 3 -45 -38 -23 -25 13 -32 13 -57 0
-43 -22 -49 -19 -43 20 4 28 0 40 -22 67 l-28 33 40 9 c31 6 44 16 58 42 10
19 19 34 21 34 1 0 11 -15 22 -34z m597 0 c13 -26 24 -35 56 -42 l41 -9 -27
-30 c-21 -25 -25 -37 -20 -67 6 -43 6 -43 -41 -23 -32 13 -39 13 -64 0 -41
-21 -43 -20 -36 23 5 33 2 42 -19 62 -33 31 -32 38 11 46 27 5 41 15 56 40 11
19 22 34 24 34 1 0 10 -15 19 -34z m614 -5 c10 -23 21 -30 53 -35 l41 -7 -28
-29 c-24 -25 -27 -35 -22 -69 3 -23 3 -41 1 -41 -3 0 -19 7 -35 16 -28 14 -34
14 -71 -1 l-41 -16 6 38 c6 32 2 42 -21 66 -22 23 -24 29 -12 37 8 5 25 10 37
10 13 0 28 12 42 36 23 39 33 38 50 -5z m594 4 c12 -25 23 -35 39 -35 13 0 30
-5 38 -10 12 -7 11 -13 -10 -35 -19 -20 -24 -35 -21 -65 l3 -40 -35 15 c-31
13 -40 13 -71 0 l-36 -15 0 42 c0 29 -7 49 -22 65 -19 20 -20 25 -8 33 8 5 24
10 36 10 13 0 27 12 40 35 10 19 21 35 24 35 4 0 14 -16 23 -35z m-2397 -4
c13 -22 28 -32 57 -36 l39 -7 -26 -27 c-20 -20 -26 -38 -26 -69 l0 -42 -36 15
c-32 13 -39 13 -64 0 -41 -21 -43 -20 -37 24 4 33 1 43 -19 62 -32 30 -30 37
11 45 24 4 41 15 52 35 22 36 28 36 49 0z m-249 -276 c18 -3 33 -8 33 -11 0
-3 -10 -18 -21 -33 -15 -21 -20 -39 -17 -65 2 -20 2 -36 1 -36 -2 0 -20 7 -39
15 -32 13 -39 13 -64 0 -41 -21 -43 -20 -36 23 5 33 2 42 -19 62 -33 31 -32
38 11 46 27 5 41 15 57 42 l20 35 21 -36 c15 -26 30 -37 53 -42z m548 36 c10
-20 25 -31 50 -35 40 -8 43 -16 15 -41 -14 -13 -20 -31 -20 -62 0 -23 -2 -43
-5 -43 -4 0 -19 7 -35 15 -27 14 -33 14 -60 0 -16 -8 -31 -15 -35 -15 -3 0 -5
20 -5 43 0 31 -6 49 -20 62 -28 25 -25 33 16 41 27 5 39 14 51 40 18 37 26 36
48 -5z m647 -36 l38 -7 -25 -32 c-16 -21 -25 -46 -25 -70 l0 -36 -36 15 c-32
13 -39 13 -64 0 -41 -21 -43 -20 -36 23 5 33 2 42 -19 62 -33 31 -32 37 11 44
26 5 41 16 56 43 l21 36 21 -36 c16 -28 29 -37 58 -42z m593 1 c40 -8 43 -16
15 -41 -14 -13 -20 -31 -20 -62 0 -23 -2 -43 -5 -43 -4 0 -19 7 -35 15 -27 14
-33 14 -60 0 -41 -21 -43 -20 -37 24 4 33 1 43 -19 62 -32 30 -30 37 11 45 25
4 40 15 56 42 l21 37 19 -36 c14 -29 26 -38 54 -43z m560 42 c12 -20 32 -35
53 -40 38 -10 39 -14 10 -45 -17 -18 -21 -34 -19 -64 l3 -39 -36 17 c-34 16
-38 16 -71 0 l-35 -17 0 44 c0 30 -6 48 -20 61 -28 25 -25 33 13 43 20 5 40
20 52 40 11 17 22 31 25 31 3 0 14 -14 25 -31z m-2690 -270 c8 -10 26 -18 39
-18 36 0 39 -14 10 -41 -22 -21 -25 -29 -19 -67 l6 -43 -30 15 c-37 20 -54 20
-91 1 l-28 -14 5 40 c5 34 2 44 -22 69 -30 31 -29 32 25 44 14 3 34 19 44 37
18 31 20 31 33 13 7 -10 20 -27 28 -36z m584 17 c16 -28 27 -35 51 -35 35 0
39 -18 9 -46 -15 -13 -20 -28 -18 -56 4 -43 0 -45 -42 -28 -26 11 -36 10 -66
-4 l-35 -17 5 38 c3 30 -1 45 -20 71 -25 34 -25 34 28 46 17 4 31 17 39 36 16
39 23 38 49 -5z m626 -17 c8 -10 25 -18 38 -18 37 0 40 -11 11 -41 -23 -24
-26 -34 -21 -68 3 -23 4 -41 3 -41 -2 0 -18 7 -36 16 -27 14 -39 15 -65 5 -44
-15 -44 -15 -38 22 4 26 -1 40 -22 65 -28 33 -27 34 25 46 14 3 33 19 43 38
18 32 19 32 33 13 8 -11 21 -28 29 -37z m572 35 c11 -33 36 -53 65 -53 33 0
37 -19 8 -45 -14 -12 -20 -31 -20 -58 0 -32 -3 -38 -16 -33 -42 16 -64 16 -94
1 l-33 -17 5 40 c5 33 1 44 -19 66 -29 31 -25 42 21 50 25 5 37 14 46 36 14
34 28 38 37 13z m613 -22 c8 -21 21 -32 43 -37 49 -10 51 -14 22 -44 -24 -25
-26 -34 -21 -66 7 -35 6 -36 -16 -29 -29 10 -77 10 -106 0 -22 -7 -23 -6 -16
29 5 32 3 41 -21 66 -29 30 -27 34 20 44 21 5 37 17 49 41 21 39 28 38 46 -4z
m645 -37 c40 -7 41 -10 15 -44 -12 -15 -20 -41 -20 -64 0 -33 -2 -37 -17 -30
-22 10 -70 9 -102 -1 -23 -8 -24 -7 -19 33 5 34 2 44 -18 63 -29 28 -30 39 -3
39 32 0 57 18 75 52 l17 32 18 -37 c15 -28 27 -38 54 -43z"/>
<path d="M0 1585 l0 -175 3650 0 3650 0 0 175 0 175 -3650 0 -3650 0 0 -175z"/>
<path d="M0 870 l0 -170 3650 0 3650 0 0 170 0 170 -3650 0 -3650 0 0 -170z"/>
<path d="M0 160 l0 -160 3650 0 3650 0 0 160 0 160 -3650 0 -3650 0 0 -160z"/>
</g>
</svg>
